<?xml version="1.0" encoding="UTF-8"?>
<svg id="Camada_4" data-name="Camada 4" xmlns="http://www.w3.org/2000/svg" viewBox="0 0 851.19 770.27">
  <defs>
    <style>
      .cls-1 {
        fill: #001dda;
      }

      .cls-1, .cls-2 {
        stroke-width: 0px;
      }

      .cls-2 {
        fill: #fe8000;
      }
    </style>
  </defs>
  <g>
    <path class="cls-1" d="M738.71,608.79c-29.14-22.94-46.02-33.91-46.02-33.91-13.55-9.75-25.51-17.54-35.05-23.46-10.65-6.61-16.92-10.04-25.35-9.98-7.77.05-13.38,3.04-20.11,6.74-20.64,11.35-30.58,17.64-43.65,25.18-12.99,7.49-25.99,14.99-38.98,22.48l-24.63,14.2c-18.35,10.58-40.95,10.58-59.3,0l-143.94-83.01c-18.38-10.6-29.71-30.21-29.71-51.43v-183.4c0-21.22,11.33-40.83,29.71-51.43l143.94-83.01c2.27-1.31,4.61-2.46,7-3.44,16.88-6.98,36.22-5.83,52.3,3.44l24.63,14.2c12.99,7.49,25.99,14.99,38.98,22.48,13.07,7.54,23.01,13.83,43.65,25.18,6.73,3.7,12.34,6.69,20.11,6.74,8.43.06,14.7-3.37,25.35-9.98,9.54-5.92,21.5-13.71,35.05-23.46,0,0,16.88-10.97,46.02-33.91,1.12-.89,3.89-3.13,4.69-6.72.7-3.17-.47-5.94-.67-6.4,0,0-1-2.3-3.12-4.09-5.2-4.36-167.43-96.72-189.3-109.16l-42.43-24.49c-18.83-10.87-42.03-10.87-60.86,0l-47.01,27.13-226.75,130.88c-18.84,10.87-30.45,30.97-30.45,52.73v330.02c0,21.76,11.61,41.86,30.45,52.73l273.76,158.01c18.83,10.87,42.03,10.87,60.86,0l42.43-24.49c21.87-12.44,184.1-104.8,189.3-109.16,2.12-1.79,3.12-4.09,3.12-4.09.2-.46,1.37-3.23.67-6.4-.8-3.59-3.57-5.83-4.69-6.72Z"/>
    <path class="cls-2" d="M150.26,679.28l-26.58,15.5c-3.88,2.26-8.68,2.26-12.56,0l-26.58-15.5c-3.83-2.23-6.18-6.33-6.18-10.76v-31.23c0-4.43,2.35-8.53,6.18-10.76l26.58-15.5c3.88-2.26,8.68-2.26,12.56,0l26.58,15.5c3.83,2.23,6.18,6.33,6.18,10.76h0s0,31.23,0,31.23c0,4.43-2.35,8.53-6.18,10.76Z"/>
    <path class="cls-1" d="M55.98,668.49l-20.67,12.08c-3.04,1.77-6.79,1.77-9.83,0l-20.67-12.08C1.84,666.75,0,663.55,0,660.09v-24.38c0-3.46,1.84-6.66,4.82-8.41l20.67-12.08c3.04-1.77,6.79-1.77,9.83,0l20.67,12.08c2.99,1.75,4.82,4.95,4.82,8.41h0s0,24.38,0,24.38c0,3.46-1.84,6.66-4.82,8.41Z"/>
    <path class="cls-1" d="M113.78,588.76l-35.76,20.86c-5.22,3.05-11.68,3.05-16.91,0l-35.76-20.86c-5.15-3.01-8.32-8.52-8.32-14.49v-42.03c0-5.97,3.17-11.48,8.32-14.49l35.76-20.86c5.22-3.05,11.68-3.05,16.91,0l35.76,20.86c5.15,3.01,8.32,8.52,8.32,14.49h0s0,42.03,0,42.03c0,5.97-3.17,11.48-8.32,14.49Z"/>
  </g>
  <path class="cls-2" d="M815.87,249.41c-.5-2.91-2-5.05-2-5.05-.3-.43-2.12-2.97-5.2-4-3.51-1.17-6.83.2-8.16.77-34.34,14.75-52.23,24.52-52.23,24.52-15.19,7.36-27.87,14.27-37.73,19.95-11.02,6.32-17.09,10.3-21.24,18.12-3.82,7.21-4.01,13.97-4.15,22.14-.27,16.17-.16,27.11-.03,37.16h-.02v42.41h.01c-.12,9.87-.23,20.69.04,36.53.14,8.17.33,14.93,4.15,22.14,4.14,7.81,10.21,11.79,21.23,18.12,9.86,5.67,22.54,12.59,37.73,19.95,0,0,17.89,9.77,52.22,24.52,1.33.56,4.64,1.94,8.16.77,3.08-1.03,4.9-3.58,5.2-4,0,0,1.5-2.14,2-5.05.61-3.64.75-57.62.73-112.97h0v-37.45h.02c.03-57.26-.1-114.81-.73-118.57Z"/>
</svg>